<svg xmlns="http://www.w3.org/2000/svg" xmlns:xlink="http://www.w3.org/1999/xlink" width="60" zoomAndPan="magnify" viewBox="0 0 45 44.999999" height="60" preserveAspectRatio="xMidYMid meet" version="1.0"><defs><clipPath id="527da3d626"><path d="M 4 1 L 41 1 L 41 44 L 4 44 Z M 4 1 " clip-rule="nonzero"/></clipPath><clipPath id="1642fc5a2e"><path d="M 54.386719 22.921875 L 12.234375 52.941406 L -9.519531 22.394531 L 32.632812 -7.625 Z M 54.386719 22.921875 " clip-rule="nonzero"/></clipPath><clipPath id="4d4d7a24b0"><path d="M 54.386719 22.921875 L 12.234375 52.941406 L -9.519531 22.394531 L 32.632812 -7.625 Z M 54.386719 22.921875 " clip-rule="nonzero"/></clipPath></defs><g clip-path="url(#527da3d626)"><g clip-path="url(#1642fc5a2e)"><g clip-path="url(#4d4d7a24b0)"><path fill="#00d09c" d="M 5.921875 42.121094 L 23.878906 43.921875 C 24.207031 43.957031 24.523438 43.898438 24.820312 43.746094 C 25.117188 43.59375 25.347656 43.375 25.515625 43.085938 C 25.683594 42.800781 25.761719 42.488281 25.746094 42.15625 C 25.730469 41.824219 25.625 41.519531 25.433594 41.25 L 22.480469 37.101562 L 37.691406 26.269531 C 37.875 26.136719 38.023438 25.976562 38.144531 25.785156 C 38.265625 25.59375 38.34375 25.390625 38.378906 25.167969 C 38.417969 24.945312 38.410156 24.722656 38.359375 24.503906 C 38.308594 24.285156 38.21875 24.082031 38.089844 23.902344 L 32.179688 15.605469 C 32.046875 15.421875 31.886719 15.269531 31.695312 15.148438 C 31.507812 15.03125 31.300781 14.953125 31.078125 14.914062 C 30.855469 14.878906 30.636719 14.882812 30.414062 14.933594 C 30.195312 14.984375 29.996094 15.074219 29.8125 15.207031 L 14.601562 26.039062 L 10.660156 20.507812 L 25.871094 9.675781 C 26.054688 9.542969 26.207031 9.382812 26.328125 9.191406 C 26.445312 9 26.523438 8.796875 26.5625 8.574219 C 26.597656 8.351562 26.59375 8.128906 26.542969 7.910156 C 26.492188 7.691406 26.402344 7.492188 26.269531 7.308594 L 24.496094 4.816406 L 36.746094 6.097656 L 33.851562 16.226562 L 37.097656 17.125 L 40.53125 5.03125 C 40.683594 4.507812 40.601562 4.023438 40.289062 3.578125 C 39.992188 3.144531 39.582031 2.898438 39.058594 2.847656 L 21.101562 1.046875 C 20.773438 1.011719 20.457031 1.070312 20.160156 1.222656 C 19.867188 1.371094 19.632812 1.589844 19.464844 1.878906 C 19.292969 2.171875 19.21875 2.488281 19.234375 2.828125 C 19.253906 3.167969 19.363281 3.472656 19.566406 3.746094 L 22.519531 7.894531 L 7.308594 18.726562 C 7.125 18.855469 6.972656 19.019531 6.855469 19.207031 C 6.734375 19.398438 6.65625 19.605469 6.621094 19.828125 C 6.582031 20.050781 6.589844 20.269531 6.640625 20.488281 C 6.691406 20.710938 6.78125 20.910156 6.910156 21.09375 L 12.820312 29.390625 C 12.949219 29.574219 13.113281 29.726562 13.300781 29.84375 C 13.492188 29.964844 13.699219 30.042969 13.921875 30.082031 C 14.144531 30.117188 14.363281 30.109375 14.582031 30.0625 C 14.804688 30.011719 15.003906 29.917969 15.1875 29.789062 L 30.398438 18.957031 L 34.335938 24.488281 L 19.128906 35.320312 C 18.945312 35.449219 18.792969 35.613281 18.671875 35.800781 C 18.554688 35.992188 18.476562 36.199219 18.4375 36.421875 C 18.398438 36.644531 18.40625 36.863281 18.457031 37.082031 C 18.507812 37.304688 18.597656 37.503906 18.730469 37.6875 L 20.5 40.175781 L 8.253906 38.898438 L 11.148438 28.769531 L 7.871094 27.828125 L 4.425781 39.933594 C 4.363281 40.175781 4.355469 40.421875 4.402344 40.667969 C 4.445312 40.914062 4.542969 41.136719 4.6875 41.34375 C 4.832031 41.546875 5.015625 41.710938 5.230469 41.832031 C 5.449219 41.957031 5.683594 42.027344 5.933594 42.050781 Z M 5.921875 42.121094 " fill-opacity="1" fill-rule="nonzero"/></g></g></g></svg>